<svg viewBox="0 0 22 28" fill="currentColor" xmlns="http://www.w3.org/2000/svg" preserveAspectRatio="xMidYMid meet">
<path fill-rule="evenodd" clip-rule="evenodd" d="M4.125 0.249996C3.03098 0.249996 1.98177 0.684593 1.20818 1.45818C0.434597 2.23177 0 3.28098 0 4.375V26.375C0 26.8901 0.287852 27.3619 0.745825 27.5976C1.2038 27.8333 1.75508 27.7933 2.1742 27.4939L11 21.1897L19.8258 27.4939C20.2449 27.7933 20.7962 27.8333 21.2542 27.5976C21.7121 27.3619 22 26.8901 22 26.375V4.375C22 3.28098 21.5654 2.23177 20.7918 1.45818C20.0182 0.684593 18.969 0.249996 17.875 0.249996H4.125ZM3.15273 3.40272C3.41059 3.14486 3.76033 3 4.125 3H17.875C18.2397 3 18.5894 3.14486 18.8473 3.40272C19.1051 3.66059 19.25 4.01032 19.25 4.375V23.7031L11.7992 18.3811C11.3211 18.0396 10.6789 18.0396 10.2008 18.3811L2.75 23.7031V4.375C2.75 4.01032 2.89487 3.66059 3.15273 3.40272Z" fill="currentColor"/>
</svg>
