<svg width="28" height="28" viewBox="0 0 28 28" fill="none" xmlns="http://www.w3.org/2000/svg">
<g id="icon_question">
<path d="M14.3228 9.03043C13.7409 8.93061 13.1424 9.03996 12.6334 9.33911C12.1244 9.63825 11.7377 10.1079 11.5418 10.6648C11.3127 11.3161 10.5991 11.6583 9.94784 11.4292C9.2966 11.2001 8.95439 10.4865 9.18348 9.83522C9.57532 8.72134 10.3487 7.78207 11.3667 7.18378C12.3847 6.58549 13.5816 6.36679 14.7454 6.56641C15.9092 6.76603 16.9648 7.3711 17.7253 8.27444C18.4856 9.17759 18.9017 10.3206 18.9001 11.5012C18.8996 13.4141 17.4813 14.6774 16.4685 15.3526C15.924 15.7156 15.3883 15.9825 14.9938 16.1579C14.7947 16.2464 14.6271 16.3135 14.5063 16.3595C14.4458 16.3826 14.3967 16.4005 14.361 16.4131L14.3176 16.4284L14.3038 16.4331L14.2989 16.4347L14.297 16.4354C14.297 16.4354 14.2954 16.4359 13.9001 15.25L14.2954 16.4359C13.6405 16.6542 12.9326 16.3002 12.7143 15.6453C12.4961 14.9908 12.8495 14.2834 13.5036 14.0646L13.5235 14.0576C13.5427 14.0508 13.5742 14.0393 13.6163 14.0233C13.7006 13.9912 13.8259 13.9412 13.9784 13.8734C14.287 13.7363 14.6888 13.5344 15.0818 13.2725C15.9438 12.6978 16.4001 12.0864 16.4001 11.5V11.4982C16.401 10.9078 16.1929 10.3361 15.8127 9.88444C15.4325 9.43277 14.9047 9.13024 14.3228 9.03043Z" fill="#E7B10A"/>
<path d="M14 19C13.3096 19 12.75 19.5596 12.75 20.25C12.75 20.9404 13.3096 21.5 14 21.5H14.0125C14.7029 21.5 15.2625 20.9404 15.2625 20.25C15.2625 19.5596 14.7029 19 14.0125 19H14Z" fill="#E7B10A"/>
<path fill-rule="evenodd" clip-rule="evenodd" d="M0.25 14C0.25 6.40608 6.40608 0.25 14 0.25C21.5939 0.25 27.75 6.40608 27.75 14C27.75 21.5939 21.5939 27.75 14 27.75C6.40608 27.75 0.25 21.5939 0.25 14ZM14 2.75C7.7868 2.75 2.75 7.7868 2.75 14C2.75 20.2132 7.7868 25.25 14 25.25C20.2132 25.25 25.25 20.2132 25.25 14C25.25 7.7868 20.2132 2.75 14 2.75Z" fill="#E7B10A"/>
</g>
</svg>
