<svg width="23" height="29" viewBox="0 0 23 29" fill="none" xmlns="http://www.w3.org/2000/svg">
<g id="icon_map">
<path fill-rule="evenodd" clip-rule="evenodd" d="M11.5 7.6001C8.95949 7.6001 6.9 9.65959 6.9 12.2001C6.9 14.7406 8.95949 16.8001 11.5 16.8001C14.0405 16.8001 16.1 14.7406 16.1 12.2001C16.1 9.65959 14.0405 7.6001 11.5 7.6001ZM9.2 12.2001C9.2 10.9298 10.2297 9.9001 11.5 9.9001C12.7703 9.9001 13.8 10.9298 13.8 12.2001C13.8 13.4704 12.7703 14.5001 11.5 14.5001C10.2297 14.5001 9.2 13.4704 9.2 12.2001Z" fill="#E7B10A"/>
<path fill-rule="evenodd" clip-rule="evenodd" d="M10.8615 28.1065C10.8618 28.1068 10.8621 28.107 11.5 27.1501L10.8615 28.1065C11.2478 28.3641 11.7516 28.3645 12.1379 28.107L11.5 27.1501C12.1379 28.107 12.1376 28.1072 12.1379 28.107L12.1418 28.1043L12.1495 28.0992L12.1758 28.0814C12.1982 28.0662 12.2302 28.0443 12.271 28.016C12.3527 27.9595 12.4701 27.877 12.618 27.7702C12.9139 27.5565 13.3327 27.2447 13.8336 26.8458C14.8335 26.0496 16.1697 24.8994 17.5098 23.4848C20.1431 20.7052 23 16.6873 23 12.2001C23 9.15011 21.7884 6.22504 19.6317 4.06838C17.4751 1.91171 14.55 0.700105 11.5 0.700105C8.45001 0.700105 5.52494 1.91171 3.36827 4.06838C1.2116 6.22504 0 9.15011 0 12.2001C0 16.6873 2.8569 20.7052 5.49015 23.4848C6.8303 24.8994 8.16653 26.0496 9.16645 26.8458C9.66731 27.2447 10.0861 27.5565 10.382 27.7702C10.5299 27.877 10.6473 27.9595 10.729 28.016C10.7698 28.0443 10.8018 28.0662 10.8242 28.0814L10.8505 28.0992L10.8582 28.1043L10.8615 28.1065ZM4.99462 5.69472C6.71995 3.96939 9.06001 3.00011 11.5 3.00011C13.94 3.00011 16.28 3.96939 18.0054 5.69472C19.7307 7.42006 20.7 9.76011 20.7 12.2001C20.7 15.7629 18.3819 19.22 15.8402 21.9029C14.5928 23.2196 13.3415 24.2975 12.4008 25.0466C12.0507 25.3254 11.7449 25.5576 11.5 25.7386C11.2551 25.5576 10.9493 25.3254 10.5992 25.0466C9.65847 24.2975 8.4072 23.2196 7.15985 21.9029C4.6181 19.22 2.3 15.7629 2.3 12.2001C2.3 9.76011 3.26928 7.42006 4.99462 5.69472Z" fill="#E7B10A"/>
</g>
</svg>
