<svg fill="currentColor" xmlns="http://www.w3.org/2000/svg" viewBox="0 0 144.23 151.3"><g id="anglo"><path d="M951.66,501.76c-8.32,2.56-24.64,49.12-28,66.08s18.4,18.08,44.32,9.44,19.52-31.52,13.6-43.84S961.43,498.75,951.66,501.76Zm25.48,50.52a12.33,12.33,0,0,1-2.64,5.22l-20.22,11.34s-12.66,5.82-15.48.78.9-15.25,3.06-21.42,5.4-23.4,11.4-25.8c9-3.61,22.24,21.92,22.24,21.92S977.68,549.4,977.14,552.28Z" transform="translate(-885.23 -462.67)" style="fill:none"/><path d="M956.38,533.26c-2.82,1.26-7.74,11.76-9,20.82s2,6.9,4.86,6.66,12-6.12,14.7-8.52,0-8.28,0-8.28S959.78,531.74,956.38,533.26Z" transform="translate(-885.23 -462.67)" style="fill:none"/><path d="M966.94,483.28s-13.47-11.12-24.48-7c-10.8,4.08-18.34,27.86-20.16,32.4-3.86,9.6-21.67,44.6-22.8,65-.84,15.12,9.59,24,19.68,27.6,12.24,4.32,82,4.8,91.44-30.24C1022.76,526.23,966.94,483.28,966.94,483.28Zm17.2,99.12c-19.68,8.8-55.84,14.24-64.48,5.6s-6.08-27.52-3.52-34.4,22.08-59.68,32.16-64.48c6.12-2.91,15.68-4.16,35.84,29.28S1007.13,572.12,984.14,582.4Z" transform="translate(-885.23 -462.67)" style="fill:none"/><path d="M1028.38,554.8c-7.2-40.56-50.4-75.12-50.4-75.12s-19.44-20-39.84-16.62c-19.92,3.29-52.77,96.54-52.91,116.46s26,40.8,73.55,32.64S1035.58,595.36,1028.38,554.8Zm-17.76,16.32c-9.48,35-79.2,34.56-91.44,30.24-10.09-3.56-20.52-12.48-19.68-27.6,1.13-20.44,18.94-55.44,22.8-65,1.82-4.54,9.36-28.32,20.16-32.4,11-4.16,24.48,7,24.48,7S1022.76,526.23,1010.62,571.12Z" transform="translate(-885.23 -462.67)" /><path d="M948.3,489.12c-10.08,4.8-29.6,57.6-32.16,64.48S911,579.36,919.66,588s44.8,3.2,64.48-5.6c23-10.28,20.16-30.56,0-64S954.42,486.21,948.3,489.12ZM968,577.28c-25.92,8.64-47.68,7.52-44.32-9.44s19.68-63.52,28-66.08c9.77-3,24,19.36,29.92,31.68S993.9,568.64,968,577.28Z" transform="translate(-885.23 -462.67)" /><path d="M953.26,522.4c-6,2.4-9.24,19.63-11.4,25.8s-5.88,16.38-3.06,21.42,15.48-.78,15.48-.78L974.5,557.5a12.33,12.33,0,0,0,2.64-5.22c.54-2.88-1.64-8-1.64-8S962.28,518.79,953.26,522.4Zm13.68,29.82c-2.7,2.4-11.88,8.28-14.7,8.52s-6.12,2.4-4.86-6.66,6.18-19.56,9-20.82c3.4-1.52,10.56,10.68,10.56,10.68S969.64,549.82,966.94,552.22Z" transform="translate(-885.23 -462.67)" /></g></svg>