<svg fill="currentColor"  xmlns="http://www.w3.org/2000/svg" viewBox="0 0 136.32 136.32"><g id="Fdaniel"><path d="M960.23,471.84c-2.8,1.2-7.19,3.9-7.3,9.12-.16,7.68,4.64,11,9.6,11.2,4.69.15,42.17,0,46.34,0a68,68,0,0,0-48.54-20.32Z" transform="translate(-892.17 -471.84)" /><path d="M1009.25,492.56v30.8H948.61s-23.68-1.76-23.84-21.44c-.13-16.93,18-27.1,31.57-30v-.06H905.49v24.79c8.11-9.81,18.83-17.33,27.12-19.83-13.92,6.24-23.77,28.12-15.36,41,9.44,14.4,22.08,15,22.08,15L987,533v29.6H929.89s-19.36,1.12-33-24.16a28,28,0,0,1-3.34-12.26A68,68,0,0,0,892.17,540c0,1.46.06,2.9.15,4.33,2.94,10.22,10.33,22,28.45,25.59,5.25,1,38.08.64,38.08.64v29.28h-22.4s-16.51-.48-30.08-17.76c-.3-.38-.59-.77-.88-1.15v27.23h50.85V608c1.32.08,2.65.13,4,.13a68.14,68.14,0,0,0,48.92-115.6Z" transform="translate(-892.17 -471.84)" /></g></svg>