<svg fill="currentColor" xmlns="http://www.w3.org/2000/svg" viewBox="0 0 145.44 142.56"><g id="minsur"><path d="M1033.05,537.36l-32.64-15.12,29.76-4.8-8.4-12.48-31.2,6,5.28-31-12.48-8.64-4.8,29.52-15.12-32.16h-5.52l-14.4,32.64-3.36-30-14.4,8.4,5.28,31.2-32.4-6.24-8.64,13,30,4.08-32.4,15.6v5.28l33.12,14.64-31.2,2.16,9.12,14.88,32.88-6.48-6,31.2,15.6,10.08,1.92-30.48,15.36,32.64h5.28l15.12-32.16,4.32,29.76,13.68-7.44-6.72-32.88,31.44,6,9.12-14.16-29.28-3.84,31.68-13.92Zm-58.32,15.12-14.4,30.72-12-30.72L915.69,541.2l30.48-14.4,13.92-30.24,11.76,29.28,32.64,15.36Z" transform="translate(-887.61 -468.72)" fill="currentColor" style="opacity: 0.8"/><polygon points="43.44 42.24 46.32 57.72 58.56 58.08 60 45 43.44 42.24" fill="currentColor"/><polygon points="86.64 45 86.28 58.08 100.56 58.08 102.96 42.24 86.64 45" fill="currentColor"/><polygon points="87.6 84.36 86.28 97.2 102.48 99.84 100.32 84.36 87.6 84.36" fill="currentColor"/><polygon points="60 84.36 46.2 84.36 44.76 99.84 59.4 96.6 60 84.36" fill="currentColor"/></g></svg>