<svg fill="currentColor" xmlns="http://www.w3.org/2000/svg" xmlns:xlink="http://www.w3.org/1999/xlink" viewBox="0 0 192.72 148.66"><defs><clipPath id="clip-path" transform="translate(-863.97 -465.67)"><ellipse cx="957.1" cy="539.38" rx="72.25" ry="73.71" style="fill:none"/></clipPath></defs><g id="southern"><g style="clip-path:url(#clip-path)"><rect width="192.72" height="6.78"/><path d="M864,479.92v6.78H985.78a70.16,70.16,0,0,1,12.14-3.95l.27.38,7.4,3.57h51.1v-6.78Z" transform="translate(-863.97 -465.67)"/><path d="M972.77,496.16a14.24,14.24,0,0,1,1.29-1.36H864v6.78H969.79A13.25,13.25,0,0,1,972.77,496.16Z" transform="translate(-863.97 -465.67)"/><polygon points="158.4 29.13 162.07 35.91 192.72 35.91 192.72 29.13 158.4 29.13"/><path d="M913,538.37H864v6.78H900.1A62,62,0,0,1,913,538.37Z" transform="translate(-863.97 -465.67)"/><path d="M933.82,524.12H864v6.78h65.94A23.15,23.15,0,0,1,933.82,524.12Z" transform="translate(-863.97 -465.67)"/><path d="M1003.25,477.53s-18.08,16.32-12.8,19.52,11.1,3.19,18,3.32c8,.15,9.52-.76,9.52-.76S1010,477.05,1003.25,477.53Z" transform="translate(-863.97 -465.67)"/><path d="M973.05,495.85s-8.8,9,2.4,14c5.64,2.55,18.48,3.54,25.14,3.78s21.66-1.26,23.94-1.86,4.2,15.36,4.2,15.36-19.44.36-23.16.72-37.54,2.27-47.52-1.08c-8.31-2.79-6.67-6.46-6.6-7.32C951.66,517.15,965.67,500.89,973.05,495.85Z" transform="translate(-863.97 -465.67)"/><path d="M933.57,523.93s-7.28,8.24,6.64,14.64,38.6,4.68,38.6,4.68,18.84-.3,26-.12,30.24,3.84,32,5.12-12.4,21.52-12.4,21.52-8.24-6.24-28.64-8.4-46.4-3.36-46.4-3.36-18-1-25.84-3.12-11.2-4.4-11-8S930.93,524.33,933.57,523.93Z" transform="translate(-863.97 -465.67)"/><path d="M892.89,553.45s-1.16,5.36,3,8.56,11.36,7.44,26.16,8.8,33,3.92,41.2,9.6,14.64,11,14.64,21-4.48,12.88-4.48,12.88l-67-.64-23.28-56.88,3.06-3.36Z" transform="translate(-863.97 -465.67)"/><path d="M975.46,510a18,18,0,0,1-1.81-.9H864v6.78h147.08C997.14,514.42,981.24,512.36,975.46,510Z" transform="translate(-863.97 -465.67)"/><polygon points="166.21 43.38 169.88 50.16 192.72 50.16 192.72 43.38 166.21 43.38"/></g></g></svg>