<svg fill="currentColor"  xmlns="http://www.w3.org/2000/svg" viewBox="0 0 155.07 94.69"><g id="Unicon"><path d="M938.06,526.49l12.43,27.39s18.42,4.41,28.34,2a88.47,88.47,0,0,0,17.63-6.3,55,55,0,0,0,0-10.71,25.16,25.16,0,0,0-2.2-7.4l-6.93,1.89,10.23-13.53,16.53,2.51-6,3.15a85.8,85.8,0,0,1,1.46,9.76,31.36,31.36,0,0,1-.83,7.09,38.5,38.5,0,0,0,11.34-12.28c4.09-7.56,3-8.35,3-8.35l-12.6-25s-14.82-5.35-29.84-1.26-17.11,6.62-17.11,6.62,0,12.59.83,14.64,1.73,4.72,1.73,4.72l7.24-1.89-11,14-16.37-3.46,6.77-1.58s-1.89-10.23-1.58-13.69a45,45,0,0,0,.16-6.14S938.69,522.71,938.06,526.49Z" transform="translate(-882.8 -493.93)" /><polygon points="136.18 46.8 152 56.96 155.06 48.45 141.84 36.17 136.18 46.8" /><polygon points="8.26 59.71 20.73 36.83 40.54 36.83 40.54 61.95 57.3 61.95 57.3 57.79 44.9 57.79 44.9 33.31 18.02 33.31 4.96 56.96 8.26 59.71" /><path d="M882.8,566.76h9.92v4.48H882.8Z" transform="translate(-882.8 -493.93)" /><path d="M899.7,571.84s3.56-9.08,15.06-9.08a17.59,17.59,0,0,1,15.82,9.08h30.56A16.45,16.45,0,0,1,976,562.76c10.79,0,16.23,9.92,16.23,9.92s1.11-13,16.79-13,19.45,12.12,19.45,12.12h2.8s-1.45-16-22.25-16-18.23,8.8-18.23,8.8-4-5.92-14.79-5.92-18,8.63-18,8.63H932.82a23.5,23.5,0,0,0-18.06-8.79c-14.5,0-19.2,13.24-19.2,13.24Z" transform="translate(-882.8 -493.93)" /><path d="M914.76,566.53a11,11,0,1,0,11,11A11,11,0,0,0,914.76,566.53Zm0,17.16a6.07,6.07,0,1,1,6.07-6.07A6.07,6.07,0,0,1,914.76,583.69Z" transform="translate(-882.8 -493.93)" /><path d="M976,566.53a11,11,0,1,0,11,11A11,11,0,0,0,976,566.53Zm0,17.16a6.07,6.07,0,1,1,6.07-6.07A6.07,6.07,0,0,1,976,583.69Z" transform="translate(-882.8 -493.93)" /><path d="M1009,565.17a11.63,11.63,0,1,0,11.63,11.63A11.63,11.63,0,0,0,1009,565.17Zm0,18.41a6.79,6.79,0,1,1,6.79-6.78A6.78,6.78,0,0,1,1009,583.58Z" transform="translate(-882.8 -493.93)" /></g></svg>