<svg fill="currentColor" xmlns="http://www.w3.org/2000/svg" viewBox="0 0 131.31 164.4"><g id="yura"><path d="M962.82,457.28l4.23.87c13.09,2.73,22.58,10.67,30.28,21.12,6.85,9.31,11.27,19.78,14.18,30.92.12.44.28.85.44,1.27,0,.07.14.1,0,0,1.06-1.34,1.86-3.16,3.22-3.8a8.81,8.81,0,0,1,5.25-.32c2.73.57,3.79,2.88,4.34,5.43,1.6,7.45.52,14.92.27,22.39a159.7,159.7,0,0,0,.17,17.23c.48,6.41-1.28,10.49-7.54,12.61-4.43,1.49-6.24,4-7.51,8.37-4.23,14.43-11.23,27.34-22.78,37.38-7.3,6.35-15.71,10.36-25.46,10.87-10.5.54-19.72-3.06-27.83-9.6-11.85-9.57-19.14-22.24-23.56-36.52-1.69-5.44-3.54-9.43-9.56-11.29-5.18-1.59-6.15-6.27-5.92-12.46.31-8.43-.44-16.9-.73-25.36v-7.68c.41-2.22.74-4.47,1.27-6.66a6.38,6.38,0,0,1,6.2-5.22c3-.15,4.85,1.21,6.13,4.7.32-.93.59-1.57.77-2.23,3.14-11.44,7.79-22.17,15.1-31.6,7.46-9.62,16.54-16.9,28.79-19.47,1.58-.34,3.18-.64,4.77-1Zm-66.15,60.4c0,5.09,0,10,0,14.93,0,6.92.15,13.85-.13,20.76-.17,4.36,1.2,8,5.3,9.56a127.25,127.25,0,0,0,17.95,5.7c24.1,5.16,48.39,5.19,72.7,1.59a93.67,93.67,0,0,0,25.51-7.06c4.26-1.95,6-5.2,5.64-9.65-.33-4.81-.55-9.65-.48-14.47.06-5.12.55-10.22.79-15.33.1-2,0-4,0-5.7-6,2.36-11.32,5-17,6.61-16.9,4.92-34.31,6-51.8,5.52C935,529.54,914.93,528,896.67,517.68ZM925.19,526c.44-1.9.77-3.13,1-4.36a84.87,84.87,0,0,1,8.32-24.25c3.61-6.79,8.26-12.71,14.89-16.84s13.3-4.54,20-.62a38.77,38.77,0,0,1,8.67,7c7.88,8.54,12.1,19,14.84,30.13.69,2.81,1.18,5.67,1.84,8.87,4-1,7.87-1.69,11.59-2.79,6.21-1.84,5.53-.6,4.24-6.81-3.45-16.67-9.91-31.91-22.29-44-7.6-7.44-16.53-12.25-27.48-12.48-11.38-.25-20.77,4.42-28.71,12.13-13.54,13.12-20,29.8-23.27,48a2.35,2.35,0,0,0,1.09,2C914.83,523.36,919.85,524.63,925.19,526ZM911,568.56c-.06.27-.16.46-.12.61,4.31,15.5,11.19,29.53,23.61,40.24,14.68,12.65,33.37,13.31,48.73,1.58,13.83-10.56,21.18-25.24,25.66-41.63.06-.21-.12-.48-.19-.74-5.32,1.08-10.55,2.3-15.83,3.15-2.22.36-3.49,1.13-4.35,3.31-3.2,8.08-7.72,15.32-14.47,21-9,7.54-18.59,7.72-27.63.46a25.55,25.55,0,0,1-5.59-5.59c-3.46-5.34-6.48-10.95-9.75-16.41-.56-.92-1.35-2.16-2.23-2.36C923,570.83,917.11,569.75,911,568.56Zm48.6-73.29,8,10.85c-2.23,1.13-3.16-.21-3.54-1.93-.44-2-1.41-2.94-3.87-2.75l2.3,6.44c-3.13-1.36-4.35-4.45-3.16-6.88a4.32,4.32,0,0,0-1.11-5.43c-.42-.37-2.32.85-3.49,1.44a7.74,7.74,0,0,0-1.47,1.23c-7.23,6.28-14.06,13.06-22.57,17.71a2.46,2.46,0,0,0-1.22,1.37c-.63,2.89-1.12,5.8-1.69,8.91a218.56,218.56,0,0,0,64.4,0c-.51-2.89-1.06-5.53-1.42-8.2-.51-3.81-2.51-6.36-5.84-8.31-8.1-4.73-16.07-9.7-24.09-14.56C960.74,495.11,960.52,495.2,959.64,495.27Zm-26.25,77.5-.5.71c2,3.68,3.79,7.45,6,11A35.64,35.64,0,0,0,951,596.87c4.93,3,10.16,3.72,15.43,1.25,10.75-5,16-14.62,20.73-25.38A238.23,238.23,0,0,1,933.39,572.77Zm54.15-63.07.55-.65c-3.53-9.67-8.23-18.63-16.59-25.11-6.74-5.24-13.75-5.79-20.59-1.51a35.13,35.13,0,0,0-7.68,6.5c-6.07,6.88-9.93,15-12.48,23.78a8.26,8.26,0,0,0,0,1.62c3.74-2.76,7.14-5,10.29-7.62,4.85-4,9.51-8.25,14.29-12.35,1.66-1.41,5.28-1.41,7-.36C970.68,499.27,979.11,504.48,987.54,509.7Zm26.51,2.36.64,8c5.45-1.78,6-2.76,4.83-7.52a20.08,20.08,0,0,1-2.44.1A29.49,29.49,0,0,1,1014.05,512.06Zm-108.49,8,.46-7.8-5.52.4C899.79,517.8,900,518.16,905.56,520.07Zm-5.63-11.6c1.92,3.11,3.12,3.23,5.38.72Zm120.45-.1-5.75,1C1017.5,511.61,1018.34,511.49,1020.38,508.37Zm1.29,7.47c2.19-1.09,2.19-2.83,0-5Zm-123.25.44v-5.61C896.49,513.28,896.45,514.27,898.42,516.28Z" transform="translate(-894.31 -457.28)"/><path d="M981.92,550.84c6.69,2.49,2.17,8.66,4.93,12.61-2.46.48-4.51.87-6.55,1.29-1.8.36-2.57-.45-2.59-2.18l0-3.29c0-4.71-.9-5.34-5.82-4v10.56l-7.74.71c0-1.1-.12-2-.13-2.84-.08-7.5-.09-15-.27-22.48-.05-1.81.53-2.41,2.26-2.52,3.64-.22,7.28-.54,10.9-1,4.12-.47,7.07.5,8.21,2.9,1.39,2.91.58,6.32-2.2,9.23Zm-10.58-1c2.79.34,5.06.37,6-1.92.49-1.2.36-3.52-.43-4.15-1-.82-4.24-.92-4.37-.56A33.85,33.85,0,0,0,971.34,549.83Z" transform="translate(-894.31 -457.28)"/><path d="M935.42,536.92l7.72,1.27V558c0,1.78.38,3.27,2.48,3.66,2.38.44,3.52-.37,3.5-2.82,0-5.48-.17-11-.26-16.44,0-1.16,0-2.33,0-3.8l8.39.48c0,7.29.17,14.31-.07,21.31-.13,3.81-3.44,6.26-8.32,6.24a24.88,24.88,0,0,1-8-1.48c-3.57-1.28-5.47-4.08-5.45-8C935.44,550.47,935.42,543.81,935.42,536.92Z" transform="translate(-894.31 -457.28)"/><path d="M991.18,562.25c2.42-10,4.65-19.29,7-28.57a3,3,0,0,1,1.53-1.71c2.56-1.17,5.19-2.18,8.17-3.41l7.6,23.7-7.67,3.94-1.42-4.64a55.78,55.78,0,0,0-5.35,2.22,2.87,2.87,0,0,0-1.37,2.09c.11,3.44-1.8,4.86-4.83,5.41C993.78,561.47,992.78,561.82,991.18,562.25Zm9.57-13.59.58.49c1.41-.93,4.06-1.91,4-2.77-.15-3.35-1.15-6.67-1.84-10l-.66.11Z" transform="translate(-894.31 -457.28)"/><path d="M905.43,527.05c8.37.63,9.64,7.49,12,14.28a68.39,68.39,0,0,1,3.38-6.34,3,3,0,0,1,2.48-1,52.38,52.38,0,0,1,6.14,1.73c-2.06,3.41-3.9,6.73-6,9.87a11.87,11.87,0,0,0-2.32,8.16c.22,2.13.05,4.31.05,7-2.37-.94-4.31-1.65-6.19-2.5-.47-.22-.76-.89-1.09-1.38a.81.81,0,0,1,0-.54c1.28-9.85-3.84-17.93-7.31-26.46Z" transform="translate(-894.31 -457.28)"/><path d="M943,479.69l-3.59-10.09,3.8-1.88,4,5.67c1.18-3.2-2.91-7.92,3.64-8.78,1.13,3.11,2.39,6.37,3.44,9.7.12.38-.92,1.13-1.76,2.09l-3-7.91c-1.32,3.34,2.18,7.09-1.75,9.93l-4.8-6.94-.44.25c.71,2,1.52,4,2.07,6.1.16.64-.38,1.47-.6,2.22Z" transform="translate(-894.31 -457.28)"/><path d="M971.58,465.73c2.88.74,3.87,2.34,3.35,5.09a11.53,11.53,0,0,0,.37,4.84c1-1.94,2-3.89,3.4-6.7.48,1.33,1.16,2.24.94,2.76-1.25,3-2.72,5.93-4.15,8.95-6-2.08-1.84-6.94-3.31-10.67L969,476.49l-.75.24c-.27-.74-1-1.67-.75-2.2C968.73,471.52,970.21,468.6,971.58,465.73Z" transform="translate(-894.31 -457.28)"/><path d="M996.76,491.58a6.06,6.06,0,0,1-5.64,5.89c-2.74,0-5.29-3.2-5.22-6.58a6.09,6.09,0,0,1,5.67-5.58C994.32,485.31,996.78,488.27,996.76,491.58ZM994.7,490c-.53-.4-1.36-1.45-2.34-1.62-1.91-.34-4.62,2-4.25,3.7a3.92,3.92,0,0,0,2.26,2.49C992,495,994.63,492.43,994.7,490Z" transform="translate(-894.31 -457.28)"/><path d="M960.69,465.79v2.14l4.3,1.35-.21.91c-.51.08-1,.14-1.53.23-1.15.22-3.11-.94-3,1.38,0,.53,1.83,1,2.8,1.47.7.36,1.38.75,2.45,1.34a8.67,8.67,0,0,1-1,.6c-6.9.77-7.54.15-6.86-6.63.16-1.62.3-3.24.48-5.13l7.09.54C965.11,465.38,965.11,465.38,960.69,465.79Z" transform="translate(-894.31 -457.28)"/><path d="M932.5,487.85c2.06,2.57,1.83,5.25-.29,7.76a4,4,0,0,1-5.6,1c-3.11-1.76-4.2-4.26-3.16-7.27s2.56-4.14,6-3.64a25.76,25.76,0,0,0-2.47,2.53c-.65.91-1.76,2.59-1.5,2.88a28.22,28.22,0,0,0,4.28,3.43,26.27,26.27,0,0,0,1.84-3.16A24.09,24.09,0,0,0,932.5,487.85Z" transform="translate(-894.31 -457.28)"/><path d="M935.75,474.91a16.53,16.53,0,0,1-1.68,2.79c-1.1,1.24-1.59,2.24.73,3.41l2.26-3.47c2.52,1.66.86,2.47.19,3.24-1,1.18-2.16,2.23.49,3.6l2.71-3.78c1.9,1.84,1.55,2.46-3.72,7.33l-7.19-7.88,5.13-5.73Z" transform="translate(-894.31 -457.28)"/><path d="M989.09,481.86l-1.71-2.52L981.19,486l-1.79-2,5.84-6.71-2.44-3.22c1.2.14,2.12,0,2.36.32,1.65,2.26,4.67,3.68,5.12,6.69Z" transform="translate(-894.31 -457.28)"/><path d="M960.93,616.15a64.31,64.31,0,0,1-6.72-.57c-3.25-.59-4.78-3.85-3.79-7.56.82-3.06,4-4.65,7.43-3.73,3.11.83,4.67,3.75,3.88,7.07C961.4,612.76,961.25,614.2,960.93,616.15Zm-7.62-5.83c0,2,.64,3.5,2.75,3.42,2.5-.11,2.64-2.22,2.73-4s-.46-3.72-2.75-3.58C953.45,606.3,953.45,608.52,953.31,610.32Z" transform="translate(-894.31 -457.28)"/><path d="M933.83,604.72c.74-2,3.3-3.36.22-5.9l-2.15,4-2.9-2.59,7.85-8.31a29,29,0,0,1,3.67,3.53c.84,1.13,1.87,2.76,1.61,3.89s-2.14,1.58-3.33,2.36l-2.62,5.09Zm1.39-7.13a23.41,23.41,0,0,0,3.21,1.49c.24.07,1.07-.76,1-1a25.46,25.46,0,0,0-1.49-3.22Z" transform="translate(-894.31 -457.28)"/><path d="M999.73,586.85a17.1,17.1,0,0,1-3.29,1.58c-1.57.38-3.21,3.23-2.76,4.84a11.94,11.94,0,0,1,.05,3.11l-.84.11c-2.17-2.8-4.41-5.53-6.44-8.43a2.8,2.8,0,0,1,.22-2.56,3.35,3.35,0,0,1,2.46-1.4c3.42.39,6.8,1.1,10.2,1.69Zm-6.16.94L989,586.6l-.32.46,2.93,3.75Z" transform="translate(-894.31 -457.28)"/><path d="M962.42,604.54l2.66-.89c.72,2.21,1.37,4.18,2,6.16.48,1.56,1.3,2.73,3.14,2.17s2-1.87,1.56-3.5c-.6-2-1.16-4-1.75-6,1.78-1.26,2.89-1.23,3.39,1,.32,1.42.91,2.78,1.26,4.19.8,3.22-.52,5.34-3.9,6.36s-5.44.1-6.59-3.29c-.58-1.73-1.07-3.49-1.59-5.23A9.52,9.52,0,0,1,962.42,604.54Z" transform="translate(-894.31 -457.28)"/><path d="M927.18,597.06c-1-1.45-2.42-2.28-1-4.16.89-1.19-1.38-4.3-2.95-4.54a14.65,14.65,0,0,1-2.91-1l.22-1a95.7,95.7,0,0,1,10.25-2.14c1.1-.13,2.39,1.4,3.72,2.25Zm-1.07-9.41,2.08,3,2.83-3.53-.43-.48Z" transform="translate(-894.31 -457.28)"/><path d="M984.43,600.23l2.79,3.18-2.15,1.69-7.9-8.2c1.39-1.32,2.88-2.89,4.54-4.25a3.24,3.24,0,0,1,4.87.35c1.4,1.54,1.09,3.19,0,4.75C986,598.55,985.27,599.26,984.43,600.23Zm-1.34-1a19.8,19.8,0,0,0,1.58-3.41c.07-.28-.94-1.23-1.24-1.14a18.44,18.44,0,0,0-3.2,1.59Z" transform="translate(-894.31 -457.28)"/><path d="M944.06,606.57l-1.32,2.18,4.43,2.7c-1,2-2.33,1.63-8.06-2.46l5.49-9.87,6.95,3.9c-.73,1.5-.73,1.5-5.25-.52l-1.41,2.12c1.24.74,2.34,1.33,3.35,2.06.34.24.43.84.63,1.28-.53.1-1.15.43-1.58.27A33.19,33.19,0,0,1,944.06,606.57Z" transform="translate(-894.31 -457.28)"/><path d="M981.71,607.94l-2.29,1.77L973,600.24l2.37-1.8Z" transform="translate(-894.31 -457.28)"/><path d="M919.43,577.09l3-2.22,2.8,2.23-1.06,3.47-3.68-.19Z" transform="translate(-894.31 -457.28)"/><path d="M997.51,574.82l3,2.27c-.33,1-.71,2.26-1.07,3.38h-3.74l-.84-3.41Z" transform="translate(-894.31 -457.28)"/><path d="M965.71,523.89l-10.44,1.6L955,525,962.7,521c-2.65-1.7-4.6-3-6.57-4.21-5.91-3.75-6.17-7.09-.42-12.21-1.88,8,1,12.58,8.16,13.58C964.6,520.44,965.16,522.19,965.71,523.89Z" transform="translate(-894.31 -457.28)"/><path d="M976.1,519l-4.07.88c3.42-5.1.86-8-3.06-10.49C975.21,509.71,973.94,515.52,976.1,519Z" transform="translate(-894.31 -457.28)"/><path d="M971.72,525.26c1.79-2.38,1.79-2.38,7.92-1.46Z" transform="translate(-894.31 -457.28)"/><path d="M946.81,520.1l4.68-1.29.28,1-4.68,1.28Z" transform="translate(-894.31 -457.28)"/><path d="M962.29,585.93c.39-2.26.74-4.53,1.22-6.77a1.48,1.48,0,0,1,1.13-.82c.43,0,1.15.4,1.23.75a25.83,25.83,0,0,1,.72,7.17l-1.94-1.64-1.8,1.54Z" transform="translate(-894.31 -457.28)"/><path d="M952.13,583.53l1.58,1.47.62-.51a14.69,14.69,0,0,1-2.24-2.78A3.32,3.32,0,0,1,952,579a2.58,2.58,0,0,1,2.31-.76c.62.15,1,1.16,1.54,1.79l-.6.56-1.91-1.1c-.05.36-.19.69-.08.83a14.06,14.06,0,0,1,1.83,2.31c.35.81.63,2.13.22,2.66a3,3,0,0,1-2.62.62c-.6-.15-1-1.24-1.44-1.92Z" transform="translate(-894.31 -457.28)"/></g></svg>