<?xml version="1.0" standalone="no"?>
<!DOCTYPE svg PUBLIC "-//W3C//DTD SVG 20010904//EN"
 "http://www.w3.org/TR/2001/REC-SVG-20010904/DTD/svg10.dtd">
<svg version="1.0" xmlns="http://www.w3.org/2000/svg"
 width="973.000000pt" height="1090.000000pt" viewBox="0 0 973.000000 1090.000000"
 preserveAspectRatio="xMidYMid meet">

<g transform="translate(0.000000,1090.000000) scale(0.100000,-0.100000)"
fill="#000000" stroke="none">
<path d="M4653 10755 c-144 -26 -216 -58 -493 -220 -96 -56 -357 -207 -580
-335 -223 -128 -909 -524 -1525 -880 -616 -356 -1201 -693 -1300 -750 -224
-128 -284 -169 -359 -239 -112 -107 -187 -234 -228 -391 l-23 -85 0 -2325 0
-2325 22 -85 c46 -173 143 -323 280 -433 86 -69 248 -170 528 -329 121 -69
450 -258 730 -420 1678 -971 2730 -1576 2800 -1609 124 -60 219 -81 360 -81
141 0 231 20 358 80 45 21 431 240 857 486 426 247 1131 653 1565 904 1098
632 1398 807 1479 861 183 120 294 282 342 497 16 74 18 210 21 1989 3 2114
-4 2726 -31 2815 -25 80 -77 190 -87 184 -5 -3 -9 0 -9 7 0 25 -82 150 -137
210 -31 33 -82 80 -112 103 -61 47 -293 188 -461 280 -58 32 -175 99 -260 148
-85 50 -200 116 -255 148 -55 32 -156 90 -225 130 -69 40 -170 98 -225 130
-107 62 -299 172 -485 280 -63 37 -180 104 -260 150 -80 46 -181 104 -225 130
-44 26 -145 84 -225 130 -80 46 -181 104 -225 130 -44 26 -127 74 -185 107
-58 33 -170 99 -250 145 -372 218 -689 394 -755 419 -82 32 -223 59 -299 58
-28 0 -83 -7 -123 -14z m303 -476 c96 -30 102 -33 729 -394 308 -177 931 -536
1385 -797 1157 -667 1492 -862 1590 -926 121 -80 219 -181 264 -273 77 -159
71 49 71 -2339 0 -2009 -1 -2139 -18 -2210 -35 -151 -117 -281 -231 -367 -70
-51 -141 -93 -1376 -805 -443 -256 -1019 -589 -1280 -740 -705 -408 -967 -557
-1045 -595 -144 -68 -303 -78 -455 -27 -41 14 -158 73 -260 131 -102 59 -504
291 -895 516 -2740 1581 -2575 1484 -2647 1548 -115 100 -187 242 -207 409
-14 110 -15 4045 -1 4210 22 264 130 425 395 585 85 51 1588 920 2605 1507
338 195 672 388 742 429 203 118 222 128 279 143 86 23 272 21 355 -5z"/>
<path d="M1027 7402 c-15 -17 -17 -56 -17 -351 0 -331 0 -332 23 -354 12 -12
313 -201 670 -420 l647 -399 0 -1644 0 -1644 28 -29 c41 -44 830 -521 862
-521 14 0 31 5 38 12 9 9 12 384 12 1626 0 1452 2 1614 15 1608 9 -3 291 -175
628 -382 337 -208 620 -379 630 -382 10 -2 27 4 37 13 19 17 20 33 20 355 0
336 0 337 -22 357 -39 36 -3517 2173 -3536 2173 -11 0 -26 -8 -35 -18z"/>
<path d="M8360 7317 c-60 -32 -922 -551 -1190 -717 -162 -101 -718 -444 -1235
-762 -517 -319 -950 -589 -962 -601 -23 -20 -23 -21 -23 -347 0 -304 1 -328
18 -343 10 -10 26 -17 35 -17 9 0 526 315 1148 701 622 385 1133 699 1135 697
3 -4 -732 -1073 -1783 -2591 -288 -417 -531 -776 -539 -799 -19 -56 -21 -1139
-1 -1178 28 -56 116 -87 170 -59 187 97 3378 2054 3410 2091 15 18 17 49 17
320 0 248 -3 304 -15 328 -16 31 -50 45 -88 38 -12 -2 -514 -307 -1116 -677
-601 -370 -1094 -671 -1096 -669 -3 3 1621 2363 2039 2964 126 181 239 349
250 374 20 44 21 61 24 597 3 611 4 604 -60 643 -38 23 -101 26 -138 7z"/>
</g>
</svg>
