<svg xmlns="http://www.w3.org/2000/svg" viewBox="0 0 612.22 706.08" stroke="currentColor"><path d="M654.93,416.44c43.42,15.11,85.71,33.15,128.56,49.75,26.46,10.26,36.21,30.94,39.93,56.18,2.23,15,1.87,30.78,7.32,45,8.78,22.85,26.53,36.42,49.65,44.44,28.84,10,47.44,31.64,59.76,58.69,8.8,19.33,2.69,37.7-17.42,48.18-19,9.87-39.31,12.57-59.9,15.61-43.71,6.46-85.15-4.29-126.5-15.85-27.2-7.59-54.27-15.64-81.4-23.48" transform="translate(-652.95 -186.96)" style="fill:none;stroke-linecap:round;stroke-linejoin:round;stroke-width:2px"/><path d="M654.93,653.75c42.91,19.1,87.37,33.87,132.37,47.09,16.78,4.93,33.62,9.93,51,11.57,24.34,2.31,54.12-14.79,63.66-38.09,4.57-11.16,1.56-18.19-9.77-23.46-9-4.19-18.45-7.55-27.4-11.89-17.29-8.41-27-23.59-35.42-40.09-16.4-32.07-31-65-44.69-98.24-8-19.3-22.83-29.51-40.66-34.76-29.34-8.63-59.73-13.12-90.09-17.08" transform="translate(-652.95 -186.96)" style="fill:none;stroke-linecap:round;stroke-linejoin:round;stroke-width:2px"/><path d="M931.46,188.94c27.78,34,55,68.51,83.54,101.82,22.57,26.31,44,54.24,72.58,74.4,27.78,19.59,59.05,31.76,93.92,28.53,33.31-3.09,54.25-23.34,67.7-52.74,18.66-40.77,19-82.35,5.81-124.53-2.91-9.27-6.49-18.33-9.76-27.48" transform="translate(-652.95 -186.96)" style="fill:none;stroke-linecap:round;stroke-linejoin:round;stroke-width:2px"/><path d="M654,605.7c14.38,8.83,29.73,16.41,42.94,26.74,26.47,20.7,56.16,35.25,86.53,48.69,24.54,10.86,50.93,5.94,66.65-11.69,6.11-6.85,5.71-12.28-3-15.47-24.84-9.08-35.19-28.87-43.4-52.08-9.61-27.17-19.24-54.5-37.73-77.73-15.28-19.21-35-30-58-36.08-17.67-4.63-35.74-5.6-53.92-5" transform="translate(-652.95 -186.96)" style="fill:none;stroke-linecap:round;stroke-linejoin:round;stroke-width:2px"/><path d="M963.82,188c18.66,12.45,34.52,28.17,49.9,44.24,26.3,27.48,47.7,58.95,71,88.94,22.2,28.61,52.66,41.83,89,38.2,22.56-2.25,37.23-16.21,45.06-37.06,13.66-36.32,10.58-72.71-1.09-108.77-2.76-8.54-7.67-16.4-11.59-24.57" transform="translate(-652.95 -186.96)" style="fill:none;stroke-linecap:round;stroke-linejoin:round;stroke-width:2px"/><path d="M809.86,646.89c-6-10.46-16.31-17-23.63-26.4-12.31-15.74-16.9-34.47-22.61-53-9.45-30.62-31.6-49.1-61.74-56.47-18-4.42-33.53,5.18-42.1,25-7.32,16.93-5.55,31.7,7.82,45.21,22.54,22.8,46.68,43.59,75.69,57.55a146.33,146.33,0,0,0,51.87,13.82c5.21.41,11.53,2.06,14.7-4.76" transform="translate(-652.95 -186.96)" style="fill:none;stroke-linecap:round;stroke-linejoin:round;stroke-width:2px"/><path d="M834.38,188c-10.46,28.77-20.28,57.79-31.55,86.23-12.45,31.39-12.39,63.58-8.45,96.14,1,8.2,2.42,16.39,1.61,24.53-1.72,17.11-7.43,21.69-22.41,23.53-15.14,1.86-30.21.07-45.08-2.11-23.28-3.41-46.71-6.11-69.62-11.72-1.67-.41-4.61.33-4.93-2.83" transform="translate(-652.95 -186.96)" style="fill:none;stroke-linecap:round;stroke-linejoin:round;stroke-width:2px"/><path d="M1024.62,188c7.15,6.34,9.61,15.48,13.61,23.59a320,320,0,0,0,64,88c18,17.52,39.55,25.74,65.58,23,26.5-2.79,38.5-23,36-47.34-3.11-30.06-9.36-59.61-22.3-87.3" transform="translate(-652.95 -186.96)" style="fill:none;stroke-linecap:round;stroke-linejoin:round;stroke-width:2px"/><path d="M818.69,188c-4.7,15.52-14.39,27.82-24.3,40.38-17.27,21.86-22.14,48.3-23.64,75.34a191.65,191.65,0,0,0,4.73,55.9,44,44,0,0,1,1,9.79c.1,11.74-4.59,16.36-16.63,16.67-15.66.41-30.75-3.68-46.1-5.77-19.88-2.72-39.87-4.69-59.8-7" transform="translate(-652.95 -186.96)" style="fill:none;stroke-linecap:round;stroke-linejoin:round;stroke-width:2px"/><path d="M1065.8,188c6.08,5.91,7.36,14.09,9.7,21.61,9.09,29.1,26.58,51.91,51.12,69.56,7.85,5.65,16.68,11.52,26.32,7.54,11.29-4.67,12.87-16.38,13.77-27.13,2.17-26-3.79-49.94-18.54-71.58" transform="translate(-652.95 -186.96)" style="fill:none;stroke-linecap:round;stroke-linejoin:round;stroke-width:2px"/><path d="M654,705.72c15.67,6.71,28.68,17,40.24,29.38,13,14,28.93,23.35,47,29.57s25.46,18.49,20.4,37.09A281.16,281.16,0,0,1,718.67,892" transform="translate(-652.95 -186.96)" style="fill:none;stroke-linecap:round;stroke-linejoin:round;stroke-width:2px"/><path d="M734.36,188c4.63,8.8,4.93,16.92-2.14,25.35C717,231.45,713.56,253,713,275.24c-.39,14.68-.58,29.39.57,44.14,1,13.31-4.29,17.15-15.46,17.53-17.12.57-31-7.67-44.12-17.55" transform="translate(-652.95 -186.96)" style="fill:none;stroke-linecap:round;stroke-linejoin:round;stroke-width:2px"/><path d="M783.39,188c.31,12.33-4.7,22.92-11.87,32.28C755.67,240.92,749.57,264.29,750,290c.35,21.61-.14,43.21,2.9,64.73,1.72,12.15-4.52,17.77-16.52,14.54C720.5,365,705,359.35,689.23,354.74A193,193,0,0,0,654,347.8" transform="translate(-652.95 -186.96)" style="fill:none;stroke-linecap:round;stroke-linejoin:round;stroke-width:2px"/><path d="M694.15,535.1c8.64,29.09,27.53,50.63,51.11,68.49,4,3,9.46,7.42,14.42,4.73,6.06-3.29,3.39-10.54,1.9-15.29-9.34-29.62-28.06-50.94-57.66-61.77-3.51-1.28-8-3.09-9.77,2.86" transform="translate(-652.95 -186.96)" style="fill:none;stroke-linecap:round;stroke-linejoin:round;stroke-width:2px"/><path d="M654,737.1c22.47,8.38,43.51,20.11,57.43,39.53,17.22,24,15.46,50.92,3.3,77.14-5.84,12.59-12.36,24.87-18.57,37.29" transform="translate(-652.95 -186.96)" style="fill:none;stroke-linecap:round;stroke-linejoin:round;stroke-width:2px"/><path d="M689.25,188c6.29,3.57,8.9,10.11,12.8,15.65,7.43,10.59,6,21.08-.14,31.37-3.11,5.19-7.55,9.6-10.61,14.82-5.83,9.95-6.74,21-5.95,32.3.51,7.24,4,14.94-3.93,20.61-8.89,6.32-17.67,4.2-26.49,0" transform="translate(-652.95 -186.96)" style="fill:none;stroke-linecap:round;stroke-linejoin:round;stroke-width:2px"/><path d="M654,764.56c15.12,11.48,26,25.93,28.25,45.13,1.48,12.49-2,24.91-4,37.21-2.34,14.85-6.32,29.45-9.59,44.16" transform="translate(-652.95 -186.96)" style="fill:none;stroke-linecap:round;stroke-linejoin:round;stroke-width:2px"/><path d="M923.61,392.91c-17.5,6.78-20.39,29.27-13.31,45.91,8.47,19.91,24.22,31.7,55.3,20.48-6-5.41-13.05-8.8-18.62-14.25-10.67-10.46-14.56-23.39-16.52-37.43-.74-5.37-.74-11.07-5.87-14.71" transform="translate(-652.95 -186.96)" style="fill:none;stroke-linecap:round;stroke-linejoin:round;stroke-width:2px"/><path d="M654,803.78c8,17.65,4.83,35.31,0,53" transform="translate(-652.95 -186.96)" style="fill:none;stroke-linecap:round;stroke-linejoin:round;stroke-width:2px"/><path d="M913.81,345.84c-12.37,4.6-16.62,16-21.48,26.52-10.22,22.13-16.58,44.9-9.94,69.59,7.65,28.49,30.13,45.54,58.9,48.77,23.51,2.64,45.43-2.59,62.71-20.37,8.44-8.68,7.72-15.84-.87-24.57s-19.25-14.68-28.7-22.25c-19.16-15.34-30.6-35.74-41-57.1-1.92-3.94-4.13-7.75-5.82-11.79-2.42-5.79-5.84-9.78-12.8-8.8" transform="translate(-652.95 -186.96)" style="fill:none;stroke-linecap:round;stroke-linejoin:round;stroke-width:2px"/><path d="M907.92,312.5c-27.71,8.4-41.57,29.39-44.66,55.95-5.5,47.43,4.06,92.6,28,134.26C905,526.52,929,535.13,956,522.49c28.66-13.37,53.59-32.36,79.41-50.09,5.82-4,10.76-8.83,15.63-13.81,11.09-11.36,9.19-19.32-5.86-25.49-11.38-4.67-22.84-9.15-33.35-15.67-22.69-14.07-37.54-35.28-52-56.88-7.2-10.78-14.95-21.25-21.42-32.45-6.8-11.76-16.09-17.27-29.58-15.6" transform="translate(-652.95 -186.96)" style="fill:none;stroke-linecap:round;stroke-linejoin:round;stroke-width:2px"/><path d="M911.85,265.43c-43.08,8.64-75.82,50.5-76.78,98.05-.9,45.28,13.06,86.85,27.81,128.45,5.62,15.82,12.83,30.9,23.44,44.17,10.87,13.58,24,22.51,42.19,21.51,10-.54,18.32-5.68,26.45-10.8,49.36-31.07,100.22-59.48,152-86.31,6.44-3.34,12.67-7.18,17.71-12.65,6.51-7.08,5.49-12-4-15.65a172.56,172.56,0,0,0-20.59-6.86c-46.56-11.72-83.11-38.25-113.95-74.41-16.55-19.4-27.68-41.6-39-63.92-7.12-14-17.77-22.51-34.31-21.58" transform="translate(-652.95 -186.96)" style="fill:none;stroke-linecap:round;stroke-linejoin:round;stroke-width:2px"/><path d="M880.47,208.55c-32.87,4.36-49.82,26.83-60.63,55-13.17,34.33-16.24,70.14-14.11,106.83C808.38,416,818,459.72,838.4,500.73c11.38,22.91,20.88,46.78,36,67.83,10.53,14.65,23.24,25.34,41.38,27.12,14.87,1.47,28.64-4.41,41.06-11.73,34.41-20.26,67.06-43.13,97.18-69.45,17.7-15.47,39.06-20.75,61.78-22.59,27.76-2.25,46.75-19.92,52-48,3.08-16.58-2.9-28-18.68-33.21s-32.22-8.61-48-14c-35.7-12.22-64.77-34.18-89.32-62.58-21.7-25.11-38.57-53.1-52-83.37-13.14-29.66-38.18-40.42-68.6-42.16-3.26-.19-6.53,0-9.8,0" transform="translate(-652.95 -186.96)" style="fill:none;stroke-linecap:round;stroke-linejoin:round;stroke-width:2px"/><path d="M657.87,201.69c-2.3.32-3.47,1.82-2.89,3.91,5,18,4.88,36.47,4.86,54.93,0,4.22.84,7.41,5.81,9,4.81,1.55,7.47-.5,10.94-3,4.92-3.55,6.37-9,7.56-13.91,4.74-19.74-5.27-39.65-24.31-50a5.33,5.33,0,0,1-1-1" transform="translate(-652.95 -186.96)" style="fill:none;stroke-linecap:round;stroke-linejoin:round;stroke-width:2px"/></svg>