<svg id="Layer_2" data-name="Layer 2" xmlns="http://www.w3.org/2000/svg" viewBox="0 0 273.08 308.64"><polygon points="9.85 77.85 45.37 57.36 253.21 71.76 268.08 87.6 264.25 231.6 138.76 302.16 4.57 226.32 9.85 77.85" style="fill:#fff"/><path d="M957.6,521.16c2.2.21,6.2-3,6.2-3l115-69.6L957.44,380.36,843.52,449.52a2.71,2.71,0,0,0-1,2.24c.2,1.28,2.6,2.6,2.84,2.6s101.44,61.22,101.44,61.22S954.32,520.85,957.6,521.16Z" transform="translate(-821.24 -372.92)" style="fill:#fdc80a"/><path d="M1094.22,594.2l-.1-128.4s.72-10.08-1.68-14.4-8.16-8.64-8.16-8.64-114.6-66.6-114.78-66.6-5.58-3.24-12-3.24a25,25,0,0,0-10.34,2.32l-116.32,67s-5.76,4.56-7.68,9.36-1.92,11.28-1.92,11.28V590.36s-.24,10.56,2.64,15.12,8.4,7.68,8.4,7.68l111.6,64.08s9.12,4.32,13.62,4.32,10.62-2.4,10.62-2.4l116.64-67.44a27.45,27.45,0,0,0,7-7.68A14.71,14.71,0,0,0,1094.22,594.2ZM1080,595.72a36.65,36.65,0,0,1-4.64,6.4l-108.84,63s-2.52,2.56-8.78,2.76A16.31,16.31,0,0,1,948.6,665L840.92,603a24,24,0,0,1-5.52-7.32,31.63,31.63,0,0,1-2.08-8.28l.32-116.28s-1.28-7,1.28-12.8,5.76-6.56,5.76-6.56l105.76-61.6a22.41,22.41,0,0,1,10.24-3.2c5.92-.32,12,2.88,12,2.88l105,60.48s3.44,3.76,5.44,6.4,2.48,9,2.48,9l-.08,123.28A13.42,13.42,0,0,1,1080,595.72Z" transform="translate(-821.24 -372.92)" style="fill:#d51019"/><polygon points="25.2 98.96 131.65 162.96 131.04 183.84 92.64 161.28 92.64 257.88 64.33 240.96 64.33 143.52 25.2 119.64 25.2 98.96"/><polygon points="141.6 163.68 141.6 184.32 210.49 142.32 141.6 243.36 141.6 279.84 247.69 217.2 247.69 195.36 179.04 236.64 247.69 137.28 247.69 98.96 141.6 163.68"/></svg>